<svg width="37" height="29" viewBox="0 0 37 29" fill="none" xmlns="http://www.w3.org/2000/svg">
<path d="M31.3906 0.4375C34.1094 0.4375 36.3125 2.64062 36.3125 5.35938V23.6406C36.3125 26.3594 34.1094 28.5625 31.3906 28.5625H5.60938C4.30401 28.5625 3.05211 28.0439 2.12908 27.1209C1.20605 26.1979 0.6875 24.946 0.6875 23.6406V5.35938C0.6875 2.64062 2.89062 0.4375 5.60938 0.4375H31.3906ZM33.9688 9.20406L19.0644 17.4016C18.911 17.4859 18.7407 17.5348 18.566 17.5447C18.3913 17.5546 18.2166 17.5252 18.0547 17.4587L17.9356 17.4025L3.03125 9.20312V23.6406C3.03125 24.3244 3.30287 24.9801 3.78637 25.4636C4.26986 25.9471 4.92561 26.2188 5.60938 26.2188H31.3906C32.0744 26.2188 32.7301 25.9471 33.2136 25.4636C33.6971 24.9801 33.9688 24.3244 33.9688 23.6406V9.20406ZM31.3906 2.78125H5.60938C4.92561 2.78125 4.26986 3.05287 3.78637 3.53637C3.30287 4.01986 3.03125 4.67561 3.03125 5.35938V6.53031L18.5 15.0372L33.9688 6.52938V5.35938C33.9688 4.67561 33.6971 4.01986 33.2136 3.53637C32.7301 3.05287 32.0744 2.78125 31.3906 2.78125Z" fill="#32C87D"/>
</svg>
